<?xml version="1.0" encoding="utf-8"?>
<!-- Generator: Adobe Illustrator 26.3.1, SVG Export Plug-In . SVG Version: 6.00 Build 0)  -->
<svg version="1.1" id="Layer_1" xmlns="http://www.w3.org/2000/svg" xmlns:xlink="http://www.w3.org/1999/xlink" x="0px" y="0px"
	 viewBox="0 0 484 320" style="enable-background:new 0 0 484 320;" xml:space="preserve">
<style type="text/css">
	.st0{fill:#6CE2FF;}
	.st1{opacity:0.7;fill:#FFFFFF;enable-background:new    ;}
	.st2{fill:#FFFFFF;}
	.st3{fill:#263238;}
	.st4{fill:#2A1A0D;}
	.st5{clip-path:url(#SVGID_00000106139360117254619240000006996487394654927006_);}
	.st6{clip-path:url(#SVGID_00000141440751676631410210000001887164093894492298_);}
	.st7{clip-path:url(#SVGID_00000118392288289073849380000009494358987912099716_);}
	.st8{clip-path:url(#SVGID_00000021108648387335044660000013026946014147526539_);}
	.st9{fill:#EE3542;}
	.st10{font-family:'MyriadPro-Regular';}
	.st11{font-size:14.8679px;}
</style>
<g id="freepik--background-simple--inject-37">
	<path class="st0" d="M437.4,314.5c4.8,0,15.4-34.8,16.6-38.4c10.9-32.5,15.3-66.3,13-100c-2.9-41.8-8.4-87.3-36.8-119.6
		C372.8-9.1,266-0.9,211.6,63.8c-16.1,19.1-32.9,38.7-54.4,51.3c-24.5,14.4-53.4,12.5-79.7,21.4c-40,13.6-71.1,60.8-70,104.7
		c0.9,35.6,27,71.5,62.9,74.1C104.8,317.8,437.3,314.5,437.4,314.5z"/>
	<path class="st1" d="M437.4,314.5c4.8,0,15.4-34.8,16.6-38.4c10.9-32.5,15.3-66.3,13-100c-2.9-41.8-8.4-87.3-36.8-119.6
		C372.8-9.1,266-0.9,211.6,63.8c-16.1,19.1-32.9,38.7-54.4,51.3c-24.5,14.4-53.4,12.5-79.7,21.4c-40,13.6-71.1,60.8-70,104.7
		c0.9,35.6,27,71.5,62.9,74.1C104.8,317.8,437.3,314.5,437.4,314.5z"/>
	<path class="st2" d="M384.4,46.8c-4.8-2.2-6.9-0.4-8.6-2.2c-1.7-1.8,4.8-6.6-8.2-11.3c0,0-0.9-10.2-18.6-10.6
		c-17.7-0.4-13,10.2-17.7,12.7s-6-1.5-10.8,1.1c-4.8,2.6-2.6,7.6-6.5,8.4s-9.1-3.3-13.8-0.7c-4.8,2.5-4.8,4.7-6.9,4.7
		c-2.1,0-6.5-1.5-9.1,0c-2.6,1.5-5.6,3.3-5.6,3.3h109.3C387.9,52.2,389.2,49,384.4,46.8z"/>
	<path class="st0" d="M178.4,48.8c-3-1.4-4.4-0.2-5.4-1.4c-1.1-1.1,3-4.1-5.2-7.1c0,0-0.5-6.4-11.7-6.6s-8.2,6.4-11.1,8
		s-3.8-0.9-6.8,0.7c-3,1.6-1.6,4.8-4.1,5.3s-5.7-2-8.7-0.5c-3,1.6-3,3-4.4,3s-4.1-0.9-5.7,0l-3.5,2h68.7
		C180.5,52.3,181.4,50.2,178.4,48.8z"/>
	<path class="st0" d="M178.4,48.8c-3-1.4-4.4-0.2-5.4-1.4c-1.1-1.1,3-4.1-5.2-7.1c0,0-0.5-6.4-11.7-6.6s-8.2,6.4-11.1,8
		s-3.8-0.9-6.8,0.7c-3,1.6-1.6,4.8-4.1,5.3s-5.7-2-8.7-0.5c-3,1.6-3,3-4.4,3s-4.1-0.9-5.7,0l-3.5,2h68.7
		C180.5,52.3,181.4,50.2,178.4,48.8z"/>
	<path class="st1" d="M178.4,48.8c-3-1.4-4.4-0.2-5.4-1.4c-1.1-1.1,3-4.1-5.2-7.1c0,0-0.5-6.4-11.7-6.6s-8.2,6.4-11.1,8
		s-3.8-0.9-6.8,0.7c-3,1.6-1.6,4.8-4.1,5.3s-5.7-2-8.7-0.5c-3,1.6-3,3-4.4,3s-4.1-0.9-5.7,0l-3.5,2h68.7
		C180.5,52.3,181.4,50.2,178.4,48.8z"/>
</g>
<g id="freepik--Floor--inject-37">
	<g id="freepik--floor--inject-37">
		<rect x="69.8" y="311.7" class="st3" width="403" height="5.9"/>
	</g>
</g>
<g id="freepik--Plants--inject-37">
	<g id="freepik--plants--inject-37">
		<path class="st4" d="M456.4,224.1c-2-16.2-8.7-15.5-10.8-31.7c-2.1-16.2,4.5-16.9,2.5-33.1c-2.1-16.2-8.7-15.5-10.8-31.7
			c-2.1-16.2,4.6-16.9,2.5-33.1c-2.1-16.2-8.7-15.5-10.8-31.7l-1,3.3c-2,13-7.9,13.7-9.3,28.8c-1.5,16.3,5.1,16.8,3.6,33.1
			s-8.2,15.8-9.7,32s5.1,16.8,3.6,33.1s-8.2,15.8-9.7,32c-0.6,5.3-0.1,10.6,1.6,15.7c1.4,2.9,7.2,13.7,18.9,16.8
			c0.7,0.2,1.5,0.4,2.3,0.5v54.3h2.7v-54.2c10.8,0.1,18-9.6,23.4-17.7l0.1-0.1C456.8,235.1,457.2,229.5,456.4,224.1z M444.3,217.7
			l-13.3,22.5v16.9h-1.1v-16.9L415,218c-0.2-0.3-0.1-0.6,0.2-0.7c0.3-0.1,0.6-0.1,0.8,0.2l13.9,20.7v-63.8c-0.1,0-0.2-0.1-0.3-0.2
			l-11.9-13.9c-0.2-0.2-0.1-0.6,0.1-0.7s0.6-0.1,0.8,0.1l11.2,13.2v-60.7l-8-14.5c-0.1-0.3,0-0.6,0.3-0.7c0.3-0.1,0.6,0,0.7,0.2
			l6.9,12.6V88.6c0-0.3,0.3-0.5,0.6-0.5c0.3,0,0.6,0.2,0.6,0.5l0,0v20.6l4.6-10.7c0.1-0.3,0.4-0.4,0.7-0.3s0.4,0.4,0.3,0.7l0,0l0,0
			L431,112v60l10.9-11.7c0.2-0.2,0.6-0.2,0.8-0.1c0.2,0.2,0.3,0.5,0.1,0.7L431,173.7V238l12.3-20.8c0.2-0.3,0.5-0.3,0.8-0.2
			C444.3,217.1,444.4,217.4,444.3,217.7C444.3,217.7,444.3,217.7,444.3,217.7L444.3,217.7z"/>
		<path class="st4" d="M463.9,312.3l-3.2-0.9c-1.6-0.5-2.2-1.8-3.8-4.5c-1.6-2.7-6,1.4-9.3,1.4c-3.3,0,0.5-3.2-1.1-5.9
			c-1.6-2.7-6,0.5-9.8-0.5c-3.8-0.9,1.6-9.1-3.8-8.6c-1,0.1-1.8,0.8-2.3,2c-0.5-1.1-1.2-1.9-2.1-2c-5-0.5,0,7.7-3.5,8.6
			c-3.5,0.9-7.5-2.3-8.9,0.5s2,5.9-1,5.9s-7-4.1-8.5-1.4c-1.5,2.7-2,4.1-3.5,4.5l-2.9,0.9H463.9z"/>
		<path class="st4" d="M182.1,179.6L182.1,179.6L182.1,179.6L182.1,179.6L182.1,179.6c-1.5-0.2-16.2-1.4-29.6,5
			c5.9-6.8,8.6-15.4,7.6-24c-3.2-29.5-33.8-46.3-36.1-47.6v-0.1h-0.1v0.1c-2.4,1.3-32.9,18.1-36.1,47.6c-0.7,5.7,0.3,11.5,2.8,16.7
			c-17.2-9.4-37.3-7.8-39.1-7.6l0,0h-0.2v0.1c-0.9,1.9-12.4,27,1.4,48.3c12.3,19.1,38.2,14,45.2,12.2c5.9,5.6,16.7,18.5,21.4,40.4
			h-6.7l3.2,41.5h15.1l3.2-41.4h-7.9c3.6-14.9,10.1-29,19.3-41.7c7,1.6,26.1,4.3,35.5-10.2C192.1,201.5,182.8,181.1,182.1,179.6z
			 M123.4,179.4l-15.9-20.1c-0.1-0.2-0.1-0.4,0.1-0.5c0,0,0,0,0,0l0,0c0.2-0.1,0.5-0.1,0.6,0.1l15.2,19.3v-20.4l0,0l-15.9-20.1
			c-0.1-0.2-0.1-0.4,0.1-0.6c0.2-0.1,0.5-0.1,0.6,0.1l15.2,19.3v-29.7c0-0.2,0.3-0.4,0.5-0.3c0.2,0,0.3,0.2,0.4,0.3v28.7l16.5-19.1
			c0.1-0.2,0.4-0.2,0.6-0.1l0,0c0.2,0.1,0.2,0.4,0.1,0.5l-17.2,20v20.4l16.5-19.1c0.1-0.2,0.4-0.2,0.6-0.1c0,0,0,0,0,0
			c0.2,0.1,0.2,0.4,0.1,0.5c0,0,0,0,0,0l0,0l-17.2,19.9v17.2l16.5-19.1c0.1-0.2,0.4-0.2,0.6-0.1l0,0c0.2,0.1,0.2,0.4,0.1,0.5
			l-17.2,19.9v0.4h-1.4l-15.4-19.5c-0.1-0.2-0.1-0.4,0.1-0.6c0.2-0.1,0.5-0.1,0.6,0.1l15.2,19.3L123.4,179.4L123.4,179.4z
			 M98.1,228.6l-1.6-2L74,220.9c-0.2-0.1-0.3-0.3-0.2-0.4c0.1-0.1,0.2-0.2,0.4-0.2l21.6,5.5l-9.4-11.7L64,208.4
			c-0.2,0-0.3-0.2-0.3-0.4c0.1-0.2,0.3-0.3,0.4-0.2l0,0l21.5,5.5l-11.1-13.8l-22.5-5.7c-0.2,0-0.3-0.2-0.2-0.4c0,0,0,0,0,0l0,0
			c0-0.2,0.2-0.3,0.4-0.2c0,0,0,0,0,0l0,0l21.5,5.5l-15.5-19.4c-0.1-0.1-0.1-0.4,0.1-0.5c0.2-0.1,0.4-0.1,0.5,0.1l0,0l16.1,20.1
			L74.9,179c0-0.2,0.1-0.3,0.3-0.4c0,0,0,0,0,0c0.2,0,0.4,0.1,0.4,0.3c0,0,0,0,0,0c0,0,0,0.1,0,0.1l0.2,20.7l0,0l11.1,13.8
			l-0.2-19.9c0-0.2,0.1-0.3,0.3-0.4c0,0,0,0,0,0c0.2,0,0.4,0.1,0.4,0.3c0,0,0,0,0,0c0,0,0,0.1,0,0.1l0.2,20.8l0,0l9.2,11.6
			l-0.2-19.9c0-0.2,0.2-0.3,0.4-0.3c0.2,0,0.4,0.1,0.4,0.3l0,0l0,0l0.2,20.8l0,0l1.3,1.7L98.1,228.6z M100.6,228.6
			c3.3-4.5,12.7-19.4,7.1-33.7c4.4,2.6,9.1,4.8,14,6.5v64.5c-5.2-19.8-14.9-31.6-20.9-37.4H100.6z M125.1,261.9v-60.3
			c4.7-1.5,9.2-3.5,13.4-5.9c-9,13.1,1,28.3,3.7,31.9C134.7,238.2,128.9,249.8,125.1,261.9z M181.2,199l-18.2,4.6l-9,11.2l17.5-4.4
			c0.2,0,0.3,0,0.4,0.2c0,0,0,0,0,0c0,0.1-0.1,0.3-0.2,0.3l-18.2,4.6l-7.6,9.5l17.5-4.4c0.2,0,0.3,0,0.4,0.2c0,0.1,0,0.3-0.2,0.3
			l-18.2,4.6l-1,1.2c-0.2-0.1-0.3-0.2-0.5-0.3l0.5-0.7l0,0l0.1-16.8c0-0.1,0.1-0.3,0.3-0.3c0.2,0,0.3,0.1,0.3,0.3l0,0l0,0l-0.1,16.1
			l7.6-9.4l0,0l0.1-16.8c0-0.1,0.1-0.3,0.3-0.3l0,0l0,0c0.2,0,0.3,0.1,0.3,0.3l-0.1,16.1l9-11.2l0,0l0.1-16.8c0-0.1,0.2-0.2,0.3-0.2
			c0.1,0,0.2,0.1,0.2,0.2l0,0l-0.2,16.1l13.1-16.3c0.1-0.1,0.3-0.1,0.4-0.1c0.1,0.1,0.2,0.2,0.1,0.4c0,0,0,0,0,0l0,0l-12.6,15.7
			l17.5-4.4c0.2,0,0.3,0,0.4,0.2C181.5,198.8,181.4,199,181.2,199L181.2,199z"/>
	</g>
</g>
<g id="freepik--Character--inject-37">
	<polygon class="st2" points="345.1,122 342.4,114.7 336.7,107.6 333.4,115.8 340.9,124.8 	"/>
	<path class="st3" d="M340.7,125.4l-7.9-9.5l3.7-9.3l6.4,7.9l2.8,7.7L340.7,125.4z M333.9,115.8l7,8.4l3.5-2.3l-2.6-7l-5.1-6.3
		L333.9,115.8z"/>
	<path class="st0" d="M385.4,145l-22.7,0.7c-1.7,0.1-3.3-0.8-4.1-2.2L345.1,122c0,0-3.9,1.9-4.2,2.7c-0.3,0.8,9,21.5,13.1,30.7
		c0.7,1.6,2.4,2.6,4.3,2.5l25.4-0.9"/>
	<path class="st3" d="M358,158.4c-2,0-3.8-1.1-4.6-2.8c-0.8-1.9-1.8-4.2-3-6.8c-8.9-20.1-10.3-23.7-10.1-24.2c0.3-0.9,3.2-2.4,4.4-3
		l0.4-0.2l13.8,21.9c0.7,1.2,2.1,2,3.6,2l22.7-0.7v0.9l-22.7,0.7c-1.9,0.1-3.7-0.9-4.6-2.4l-13.3-21.1c-1.3,0.6-2.5,1.3-3.5,2.2
		c0.3,1.5,6.1,14.8,10,23.6c1.1,2.6,2.2,4.9,3,6.8c0.6,1.4,2.1,2.3,3.8,2.2l25.4-0.9v0.9l-25.4,0.9L358,158.4z"/>
	<polygon class="st3" points="343,126.9 346.6,125.6 346.9,126.2 343.3,127.6 	"/>
	<rect x="140.4" y="162.1" class="st0" width="214.7" height="147.7"/>
	<path class="st3" d="M355.1,310.2H140.4c-0.3,0-0.5-0.2-0.5-0.5V162c0-0.3,0.2-0.5,0.5-0.5h214.7c0.3,0,0.5,0.2,0.5,0.5v147.8
		C355.7,310,355.4,310.2,355.1,310.2z M140.9,309.3h213.7V162.5H140.9V309.3z"/>
	<path class="st0" d="M140.4,162.1l95.2-84.6c6-4.6,14.7-4.7,20.8-0.1l98.7,84.8H140.4z"/>
	<path class="st3" d="M355.1,162.5H140.4c-0.2,0-0.4-0.1-0.5-0.3c-0.1-0.2,0-0.4,0.1-0.5l95.2-84.6c6.2-4.8,15.2-4.8,21.4-0.2
		l98.8,84.8c0.2,0.1,0.2,0.3,0.1,0.5C355.5,162.4,355.3,162.5,355.1,162.5z M141.7,161.6h212.2l-97.8-84c-5.9-4.4-14.3-4.3-20.1,0.2
		L141.7,161.6z"/>
	<rect x="158.2" y="91.5" class="st2" width="179.1" height="137.6"/>
	<path class="st3" d="M337.3,229.6H158.2c-0.3,0-0.5-0.2-0.5-0.5V91.6c0-0.3,0.2-0.5,0.5-0.5h179.1c0.3,0,0.5,0.2,0.5,0.5v137.5
		C337.8,229.4,337.6,229.6,337.3,229.6z M158.7,228.7h178.1V92H158.7V228.7z"/>
	<path class="st0" d="M329.5,220.8H166.1c-0.2,0-0.4-0.2-0.4-0.4l0,0l0,0V100.3c0-0.2,0.2-0.3,0.4-0.3h163.4c0.2,0,0.4,0.2,0.4,0.3
		v120.1C329.9,220.6,329.7,220.8,329.5,220.8z M166.5,220.1h162.6V100.6H166.5V220.1z"/>
	<path class="st0" d="M324.3,217.5h-153c-0.6,0-1-0.4-1-0.9V104.1c0-0.5,0.5-0.9,1-0.9h153c0.6,0,1,0.4,1,0.9v112.5
		C325.3,217.1,324.8,217.5,324.3,217.5z M172.3,215.6h150.9V105H172.3V215.6z"/>
	<path class="st0" d="M241.8,143.5c0.8,1.1,1.5,1.6,2.4,1.6v0.1c-0.5,0-1.2,0.4-2,1.3c0,0.2-0.1,0.3-0.3,0.3c0-0.4-0.3-0.8-0.9-1.1
		c-0.6-0.3-1.3-0.4-2-0.3h-21l-2,0.7l-0.3,0.3h-0.2c-0.7-0.4-0.9-1.2-0.4-1.8c0,0,0,0,0,0c0.1-0.2,0.3-0.3,0.4-0.4h0.2
		c0.6,0.4,1.3,0.7,2,0.8l0.2,0.2h21.7C241.1,144.8,241.8,144.3,241.8,143.5z M245.2,142.9c0.8,0,1.5,0.5,2,1.6v0.2h-0.3
		c-1.3-0.4-2-0.8-2-1.4v-0.2L245.2,142.9z M246.8,145.7h0.2l0.2,0.2c0,0.5-0.5,1-1.6,1.6h-0.1c-0.3,0-0.5-0.1-0.6-0.3v-0.3
		C245.4,146.3,246.1,145.9,246.8,145.7L246.8,145.7z M250.4,142.9l0.2,0.3v0.2c0,0.4-0.6,0.9-1.7,1.4h-0.6v-0.2c0-0.5,0.5-1,1.5-1.5
		L250.4,142.9z M248.5,145.7c0.4,0,0.9,0.2,1.2,0.4c0.6,0.3,0.8,0.6,0.8,0.9v0.2c-0.1,0.2-0.3,0.3-0.6,0.3h-0.1
		c-0.6-0.3-1.1-0.7-1.4-1.2l-0.2-0.3v-0.2L248.5,145.7z M253.7,143.5c0,0.8,0.8,1.3,2.3,1.6h21.7c0.4-0.3,0.9-0.4,1.4-0.4l0.8-0.5
		h0.2c0.7,0.4,0.9,1.2,0.4,1.9c-0.1,0.1-0.2,0.3-0.4,0.4h-0.2c-0.7-0.5-1.6-0.8-2.5-0.9h-20.8c-1.5,0-2.5,0.4-2.9,1.2v0.3
		c-0.8-0.9-1.4-1.5-2-1.5c0-0.1-0.1-0.2-0.4-0.2c0-0.1,0.2-0.2,0.7-0.2C252.8,144.8,253.3,144.2,253.7,143.5L253.7,143.5z"/>
	<polygon class="st0" points="140.4,162.9 247.8,236.8 355.1,162.9 355.1,310.6 140.4,310.6 	"/>
	<path class="st3" d="M355.1,311.1H140.4c-0.3,0-0.5-0.2-0.5-0.5V162.9c0-0.3,0.3-0.5,0.6-0.5c0.1,0,0.2,0,0.2,0.1l107.1,73.7
		l107.1-73.6c0.2-0.2,0.5-0.1,0.7,0.1c0.1,0.1,0.1,0.2,0.1,0.3v147.8C355.7,310.9,355.5,311.1,355.1,311.1
		C355.2,311.1,355.2,311.1,355.1,311.1L355.1,311.1z M140.9,310.2h213.7V163.8l-106.6,73.3c-0.2,0.1-0.4,0.1-0.6,0l-106.5-73.3
		L140.9,310.2z"/>
	<polygon class="st0" points="140.4,310.6 232.8,226.5 262.7,226.5 355.1,310.6 	"/>
	<path class="st3" d="M355.1,311.1H140.4c-0.2,0-0.4-0.1-0.5-0.3c-0.1-0.2,0-0.4,0.1-0.5l92.4-84.1c0.1-0.1,0.2-0.1,0.4-0.1h29.8
		c0.1,0,0.3,0,0.4,0.1l92.5,84.1c0.1,0.1,0.2,0.3,0.1,0.5C355.5,311,355.3,311.1,355.1,311.1z M141.6,310.2h212.3L262.4,227h-29.4
		L141.6,310.2z"/>
	<polygon class="st2" points="379.4,134.7 379.1,142.5 389.3,141 389.7,127.3 	"/>
	<path class="st3" d="M378.5,143l0.3-8.6l11.4-8l-0.4,15L378.5,143z M379.9,134.9l-0.3,7.1l9.2-1.3l0.3-12.3L379.9,134.9z"/>
	<path class="st2" d="M370.7,308.8c-0.2-0.5-0.4-1.1-0.5-1.7l-0.6-3.9l-7.6-1.1l-6.3,4.1l-4,2h-0.1c-1,0.4-1.9,0.8-2.8,1.4
		c-0.7,0.5-0.3,1.1,1.7,1.1h19.8C370.3,310.6,371.2,310.1,370.7,308.8z"/>
	<path class="st3" d="M370.4,311.1h-19.9c-1.4,0-2.2-0.3-2.4-0.8c-0.1-0.4,0-0.9,0.4-1.1c0.9-0.6,1.9-1.1,3-1.4h0.1l3.9-2l6.4-4.2
		l8.2,1.2l0.6,4.3c0.1,0.5,0.3,1.1,0.5,1.6l0,0c0.5,0.8,0.2,1.9-0.6,2.5L370.4,311.1z M349,310c0.5,0.1,1,0.2,1.5,0.2h19.6
		c0.2-0.1,0.4-0.5,0.1-1.2l0,0c-0.2-0.6-0.4-1.1-0.6-1.7l-0.5-3.6l-7-1l-6.1,4l-4.2,2.1c-0.9,0.3-1.8,0.8-2.6,1.3
		C349.1,309.9,349.1,309.9,349,310L349,310z"/>
	<path class="st2" d="M370.8,309.3h-21.7c-0.1,0.1-0.2,0.1-0.3,0.2c-0.7,0.5-0.3,1.1,1.7,1.1h19.8
		C370.7,310.4,370.9,309.8,370.8,309.3z"/>
	<path class="st3" d="M370.4,311.1h-19.9c-1.4,0-2.2-0.3-2.4-0.8c-0.1-0.4,0-0.9,0.4-1.1c0.1-0.1,0.3-0.2,0.4-0.3l0.1-0.1h22.3
		l0.1,0.4c0.2,0.7-0.2,1.4-0.8,1.9L370.4,311.1z M349,310c0.5,0.1,1,0.2,1.5,0.2h19.6c0.1-0.1,0.2-0.3,0.2-0.4h-21l-0.2,0.1
		C349.1,309.9,349,309.9,349,310L349,310z"/>
	<path class="st2" d="M404,308.8c-0.2-0.5-0.4-1.1-0.5-1.7l-0.6-3.9l-7.6-1.1l-6.3,4.1l-4,2H385c-1,0.4-1.9,0.8-2.8,1.4
		c-0.7,0.5-0.3,1.1,1.7,1.1h19.8C403.6,310.6,404.6,310.1,404,308.8z"/>
	<path class="st3" d="M403.8,311.1h-19.9c-1.4,0-2.2-0.3-2.4-0.8c-0.1-0.4,0-0.9,0.4-1.1c0.9-0.6,1.9-1.1,3-1.4h0.1l3.9-2l6.4-4.2
		l8.2,1.2l0.6,4.3c0.1,0.5,0.3,1.1,0.5,1.6c0.5,0.8,0.2,1.9-0.6,2.5L403.8,311.1z M382.4,310c0.5,0.1,1,0.2,1.4,0.2h19.6
		c0.2-0.1,0.4-0.5,0.1-1.2l0,0c-0.2-0.6-0.4-1.1-0.5-1.7l-0.5-3.6l-7-1l-6.1,4l-4.2,2.1c-0.9,0.3-1.8,0.8-2.6,1.3
		C382.5,309.9,382.4,310,382.4,310z"/>
	<path class="st2" d="M404.2,309.3h-21.7c-0.1,0.1-0.2,0.1-0.3,0.2c-0.7,0.5-0.3,1.1,1.7,1.1h19.8
		C404.1,310.4,404.3,309.8,404.2,309.3z"/>
	<path class="st3" d="M403.8,311.1h-19.9c-1.4,0-2.2-0.3-2.4-0.8c-0.1-0.4,0-0.9,0.4-1.1c0.1-0.1,0.3-0.2,0.4-0.3l0.1-0.1h22.3
		l0.1,0.4c0.2,0.7-0.1,1.4-0.8,1.9L403.8,311.1z M382.4,310c0.5,0.1,1,0.2,1.4,0.2h19.6c0.1-0.1,0.2-0.3,0.2-0.4h-21l-0.2,0.1
		C382.5,309.9,382.4,310,382.4,310L382.4,310z"/>
	<path class="st0" d="M367.9,193.6l-0.9,10.2c0,0-6.3,40.7-6,45.3c0.3,4.7,1,52.9,1,52.9l7.6,1.1l8.5-53.5l11.9-54.4L367.9,193.6z"
		/>
	<path class="st3" d="M370,303.7l-8.5-1.3v-0.4c0-0.5-0.7-48.3-1-52.9c-0.3-4.6,5.7-43.8,6-45.4l0.9-10.6l23.1,1.7l-0.1,0.5
		l-11.9,54.4L370,303.7z M362.5,301.7l6.6,0.9l8.4-53l11.8-53.9l-21-1.6l-0.9,9.7c-0.1,0.4-6.3,40.7-6,45.3S362.4,297.1,362.5,301.7
		z"/>
	<path class="st3" d="M367.3,301.1l-0.7-0.1c0-0.1,3.3-15.3,3.3-23.4s0-15.9,2.2-23.6c2.2-7.5,5.1-23,5.1-23.2l0.8,0.1
		c0,0.2-2.9,15.7-5.1,23.2c-2.2,7.6-2.1,15.2-2.1,23.4C370.7,285.7,367.3,301,367.3,301.1z"/>
	<path class="st0" d="M383.2,191.1c5-2.4,10.4-4,11.9-0.8c3.1,6.3-0.6,16-0.6,16l2.7,44.4l5.4,52.5l-8.5-0.1c0,0-11-45.2-12.8-48
		c-1.8-2.8-4.7-41.4-4.7-41.4l-5.7-4.8"/>
	<path class="st3" d="M403.3,303.7l-9.5-0.1l-0.1-0.4c-3.8-15.6-11.4-45.7-12.8-47.8c-1.8-2.7-4.4-36.7-4.7-41.5l-5.6-4.6l0.7-0.7
		l5.9,4.9v0.2c1.1,15.5,3.3,39.3,4.6,41.2c1.8,2.7,11.7,43.2,12.8,47.7l7.6,0.1l-5.4-52l-2.8-44.5v-0.1c0-0.1,3.5-9.5,0.6-15.6
		c-0.3-0.6-0.8-1.1-1.5-1.3c-1.9-0.6-5.2,0.2-9.6,2.3l-0.5-0.8c4.8-2.3,8.3-3.1,10.5-2.4c1,0.3,1.7,1,2.1,1.8
		c2.9,6.2-0.2,15.2-0.6,16.2l2.8,44.3L403.3,303.7z"/>
	<path class="st3" d="M398.9,300.7c0-0.2-2.2-19-5.5-32.4c-2.5-10.2-2.3-10.8-2-11.7c0.1-0.4,0.2-0.9,0.2-1.3v-1.9
		c0.1-3.2,0.2-7.9-0.7-10.6c-1.4-4.1-2-10-2.2-18h0.8c0.1,7.9,0.9,13.8,2.2,17.9c0.9,2.8,0.8,7.6,0.8,10.8v1.9c0,0.5,0,1-0.2,1.5
		c-0.2,0.8-0.4,1.4,2,11.4c3.2,13.4,5.4,32.3,5.5,32.5L398.9,300.7z"/>
	<path class="st3" d="M389.5,219.6h-0.8v-2.4c0.3-13.2,0.1-14.6,0-14.8l0.3-0.1l-0.3-0.2l0.4-0.2c0.4,0.1,0.6,0.1,0.3,15.3
		C389.5,218.1,389.5,218.9,389.5,219.6z"/>
	<path class="st3" d="M372.7,209.5c-0.1,0-0.2,0-0.3-0.1l-1.8-1.9c-0.1-0.1-0.1-0.2-0.1-0.3l1.2-3.2l0.2-4.6c0-0.2,0.2-0.3,0.4-0.3
		c0,0,0,0,0,0c0.2,0,0.4,0.2,0.4,0.4l0,0l-0.2,4.6c0,0,0,0.1,0,0.1l-1.1,3l1.6,1.7c0.1,0.1,0.1,0.3,0,0.5l0,0
		C373,209.5,372.8,209.5,372.7,209.5z"/>
	<path class="st3" d="M377.9,204.5c-5.7,0-8-2-8.2-2.1c-0.1-0.1-0.1-0.3,0-0.5c0,0,0,0,0,0l0,0c0.1-0.1,0.4-0.1,0.5,0
		c0,0,3,2.6,10.3,1.8c0.2,0,0.4,0.1,0.4,0.3c0,0,0,0,0,0l0,0c0,0.2-0.1,0.4-0.3,0.4l0,0C379.8,204.5,378.8,204.5,377.9,204.5z"/>
	<path class="st3" d="M388.2,199.8c5.8-1,6.1-2.5,8.1-3.7c0-2-0.4-3.9-1.2-5.8c-1.5-3.2-6.9-1.6-11.9,0.8l-2.3,3.5l-12.9-0.9
		l-0.4,4.6C374.2,200.3,381.3,200.9,388.2,199.8z"/>
	<polygon class="st2" points="369.2,196.8 369.1,198.7 372.4,199.4 372.6,197 	"/>
	<path class="st3" d="M372.7,199.8l-4-0.8l0.2-2.5l4.2,0.1L372.7,199.8z M369.5,198.4l2.5,0.5l0.2-1.6l-2.6-0.1L369.5,198.4z"/>
	<polyline class="st0" points="392.1,199.6 391.6,195 393.2,194.5 394.1,198.5 	"/>
	<polygon class="st3" points="391.6,199.6 391,194.7 393.6,193.9 394.6,198.5 393.6,198.6 392.8,195.1 392.1,195.3 392.6,199.5 	"/>
	<polyline class="st0" points="379.3,201.1 378.2,195.8 381,195.8 382.1,200.3 	"/>
	<polygon class="st3" points="378.8,201.2 377.6,195.3 381.4,195.3 382.6,200.2 381.6,200.4 380.5,196.2 378.8,196.2 379.8,201 	"/>
	<path class="st2" d="M376.2,142.5c0,0-5.4,5.6-7.6,7.9s-2.2,27-2.2,30.6s-2.2,13.5,1.5,15.4s25.7,1.3,27.8-2s3.6-42.8,3.2-46.3
		c-0.4-3.6-3.6-6.5-6.1-7.6C390.3,139.5,376.2,142.5,376.2,142.5z"/>
	<path class="st3" d="M377.7,198c-4.3,0-8.5-0.3-10.1-1.2c-3.1-1.7-2.4-7.9-2-12.5c0.1-1.4,0.3-2.5,0.3-3.4
		c0-10.6,0.3-28.8,2.3-30.9c2.1-2.3,7.5-7.8,7.6-7.9l0.1-0.1h0.2c1.5-0.3,14.3-3,16.9-1.9c2.9,1.2,6.1,4.3,6.4,7.9
		s-1.1,43.3-3.3,46.6c-1.5,2.3-10.1,3-13.8,3.2C380.9,198,379.3,198,377.7,198z M376.5,143c-0.8,0.8-5.5,5.7-7.5,7.8
		c-1.3,1.3-2,12.9-2,30.3c0,0.9-0.1,2.1-0.3,3.4c-0.4,4.1-1,10.2,1.5,11.6c1.6,0.9,7.7,1.3,14.2,0.9c6.9-0.4,12.1-1.5,13-2.7
		c2-3.1,3.5-42.5,3.2-46.1s-3.7-6.3-5.9-7.2C390.9,140.3,382.1,141.8,376.5,143z"/>
	<g>
		<defs>
			<path id="SVGID_1_" d="M376.2,142.5c0,0-5.4,5.6-7.6,7.9s-2.2,27-2.2,30.6s-2.2,13.5,1.5,15.4s25.7,1.3,27.8-2s3.6-42.8,3.2-46.3
				c-0.4-3.6-3.6-6.5-6.1-7.6C390.3,139.5,376.2,142.5,376.2,142.5z"/>
		</defs>
		<defs>
			<path id="SVGID_00000121998488607727196010000000782069517293887419_" d="M377.7,198c-4.3,0-8.5-0.3-10.1-1.2
				c-3.1-1.7-2.4-7.9-2-12.5c0.1-1.4,0.3-2.5,0.3-3.4c0-10.6,0.3-28.8,2.3-30.9c2.1-2.3,7.5-7.8,7.6-7.9l0.1-0.1h0.2
				c1.5-0.3,14.3-3,16.9-1.9c2.9,1.2,6.1,4.3,6.4,7.9s-1.1,43.3-3.3,46.6c-1.5,2.3-10.1,3-13.8,3.2C380.9,198,379.3,198,377.7,198z
				 M376.5,143c-0.8,0.8-5.5,5.7-7.5,7.8c-1.3,1.3-2,12.9-2,30.3c0,0.9-0.1,2.1-0.3,3.4c-0.4,4.1-1,10.2,1.5,11.6
				c1.6,0.9,7.7,1.3,14.2,0.9c6.9-0.4,12.1-1.5,13-2.7c2-3.1,3.5-42.5,3.2-46.1s-3.7-6.3-5.9-7.2C390.9,140.3,382.1,141.8,376.5,143
				z"/>
		</defs>
		<clipPath id="SVGID_00000029768167114536024490000001398583481787037843_">
			<use xlink:href="#SVGID_1_"  style="overflow:visible;"/>
		</clipPath>
		
			<clipPath id="SVGID_00000013151118129055161090000002567119978846914967_" style="clip-path:url(#SVGID_00000029768167114536024490000001398583481787037843_);">
			<use xlink:href="#SVGID_00000121998488607727196010000000782069517293887419_"  style="overflow:visible;"/>
		</clipPath>
		<g style="clip-path:url(#SVGID_00000013151118129055161090000002567119978846914967_);">
			<path class="st0" d="M392.8,140.6c-0.3-0.1-0.6-0.2-0.9-0.2l-1.6,0.7c0,0,4.3,3,5.1,7.7c0.7,4.4,0.7,8.9-0.2,13.3
				c-0.8,4.8-13.4,0-11,1.8c2.4,1.8,11.2,4.8,11.6,6.4s-4.3,4.3-6.1,4.5s1.2,3.8,3,6.8c1.8,3,1.2,7.3-3,10.2s-13.6,4.3-17.7,4.5
				c-1.3,0-2.2,0.3-2.4,0.7c6.3,1.3,24.2,0.4,26.1-2.5c2.2-3.3,3.6-42.8,3.2-46.3S395.3,141.6,392.8,140.6z"/>
		</g>
	</g>
	<path class="st2" d="M387.3,167.6c-5.8-1.7-10.9-6.3-10.9-6.3c1.3,5.5,4.8,10.3,9.8,13.6"/>
	<path class="st3" d="M386.2,175.2c-0.1,0-0.2,0-0.2-0.1c-5.1-3.3-8.7-8.2-10-13.8c0-0.1,0.1-0.3,0.2-0.4c0.1-0.1,0.3-0.1,0.4,0.1
		c0,0,5.1,4.6,10.8,6.2c0.2,0.1,0.3,0.3,0.2,0.4c-0.1,0.2-0.3,0.3-0.4,0.2c0,0,0,0,0,0l0,0c-3.8-1.2-7.2-3.1-10.1-5.6
		c1.5,4.9,4.8,9.3,9.4,12.2c0.2,0.1,0.2,0.3,0.1,0.5c0,0,0,0,0,0l0,0C386.5,175.1,386.3,175.2,386.2,175.2z"/>
	<polygon class="st2" points="391.7,136.9 374.4,140.6 373.3,145.2 392.8,140.6 	"/>
	<path class="st3" d="M372.6,145.8l1.3-5.6l18.2-3.8l1.3,4.5L372.6,145.8z M374.8,140.9l-0.8,3.6l18.2-4.3l-0.8-2.7L374.8,140.9z"/>
	<path class="st2" d="M341.8,116l-4.7-2.5c0,0-1.8-0.2-1,1.6l4.7,3.3"/>
	<path class="st3" d="M340.7,118.9c-0.1,0-0.2,0-0.3-0.1l-4.7-3.3c-0.1,0-0.1-0.1-0.2-0.2c-0.3-0.6-0.3-1.2,0.1-1.8
		c0.4-0.4,1-0.6,1.5-0.5c0.1,0,0.1,0,0.2,0.1l4.7,2.5c0.3,0.1,0.4,0.4,0.3,0.6c-0.1,0.2-0.4,0.4-0.7,0.3c0,0,0,0-0.1,0l-0.1,0
		L337,114c-0.2,0-0.4,0-0.5,0.1c-0.1,0.1-0.1,0.4,0.1,0.8l4.5,3.2c0.2,0.1,0.3,0.4,0.1,0.6c0,0,0,0,0,0l0,0
		C341.1,118.9,340.9,119,340.7,118.9z"/>
	<path class="st2" d="M341.1,122.4c-0.2-0.5-0.5-1-0.9-1.4l-0.9-0.9l0,0l-4.7-5.3c0,0-1.5-0.9-1.1,1l2.9,5.2l-5.2-4.5
		c0,0-1-0.7-1,0.3c0,1,4.7,5.7,4.7,5.7l-5.2-2.2c0,0-1.1,0.7-0.3,1.5c0.8,0.7,5.2,2.2,5.2,2.2l-3.9-0.1c0,0-1.1,0.9-0.3,1.2
		c0.8,0.3,5.4,1.2,5.4,1.2c0.6,0.4,1.2,0.8,2,1l1.1,1.9l4.4-2L341.1,122.4z"/>
	<path class="st3" d="M338.8,129.7c-0.2,0-0.4-0.1-0.4-0.2l-1-1.8c-0.7-0.2-1.3-0.6-1.9-1c-0.9-0.2-4.5-0.9-5.3-1.2
		c-0.3-0.1-0.5-0.3-0.6-0.6c-0.1-0.6,0.6-1.2,0.8-1.3c0.1-0.1,0.2-0.1,0.4-0.1h1c-0.9-0.3-1.8-0.8-2.6-1.3c-0.3-0.3-0.5-0.6-0.4-1
		c0.1-0.5,0.4-0.9,0.8-1.2c0.1-0.1,0.3-0.1,0.5,0l2.9,1.3c-1.5-1.6-3.2-3.5-3.2-4.3c-0.1-0.4,0.2-0.7,0.5-0.9c0.5-0.1,1,0,1.3,0.3
		l3.1,2.6l-1.6-2.8c0,0,0-0.1,0-0.1c0-0.3-0.2-1.3,0.5-1.6c0.5-0.2,1.1-0.1,1.5,0.1c0,0,0.1,0.1,0.1,0.1l4.7,5.4
		c0,0,0.1,0.1,0.1,0.1l0.7,0.7c0.4,0.4,0.8,0.9,1,1.5l2.1,4.8c0.1,0.2,0,0.5-0.2,0.6l-4.4,2C339,129.7,338.9,129.7,338.8,129.7z
		 M330.5,124.7c0.8,0.3,4,0.9,5.2,1.1c0.1,0,0.2,0.1,0.3,0.2c0.5,0.4,1.1,0.7,1.7,0.9c0.1,0,0.2,0.1,0.3,0.2l0.9,1.5l3.5-1.6
		l-1.9-4.4l0,0c-0.2-0.4-0.5-0.9-0.8-1.2l-0.9-0.9c-0.1-0.1-0.1-0.1-0.1-0.2l-4.6-5.2c-0.1,0-0.2-0.1-0.3-0.1c0,0.2,0,0.4,0,0.6
		l2.9,5.1c0.1,0.2,0.1,0.4-0.1,0.6c-0.2,0.1-0.5,0.1-0.7,0l-5.2-4.5l-0.1-0.1l0,0c0,0.6,2.4,3.2,4.6,5.3c0.2,0.2,0.2,0.5,0,0.7
		c0,0,0,0,0,0c-0.1,0.1-0.4,0.2-0.6,0.1l-4.9-2.1c-0.1,0.1-0.2,0.2-0.2,0.3c0,0.1,0.1,0.2,0.1,0.3c1.6,0.9,3.3,1.6,5,2.1
		c0.2,0.1,0.4,0.3,0.3,0.5c0,0.2-0.3,0.4-0.5,0.4l-3.7-0.1C330.7,124.4,330.6,124.5,330.5,124.7z"/>
	<path class="st2" d="M391.5,157.8l-33.5,7.3c-2.8,0.4-5.5-1-6.5-3.3l-12.7-32.5l4.4-2l14.5,21.5c0.9,1.4,2.7,2.2,4.4,1.9l20-5.2"/>
	<path class="st3" d="M357,165.6c-2.6,0-5-1.5-6-3.7L338.1,129l5.2-2.4l14.7,21.8c0.7,1.3,2.3,2,3.9,1.7l20-5.2l0.3,0.9l-20,5.2
		c-2,0.4-4-0.5-5-2.1L343,127.9l-3.6,1.6l12.6,32.1c0.9,2.2,3.4,3.4,5.9,3l33.4-7.3l0.2,0.9l-33.5,7.3
		C357.8,165.6,357.4,165.6,357,165.6z"/>
	<g>
		<defs>
			<path id="SVGID_00000044888521003676204010000017707001866051862413_" d="M391.5,157.8l-33.5,7.3c-2.8,0.4-5.5-1-6.5-3.3
				l-12.7-32.5l4.4-2l14.5,21.5c0.9,1.4,2.7,2.2,4.4,1.9l20-5.2"/>
		</defs>
		<defs>
			<path id="SVGID_00000174575929330927636580000001523228697120885902_" d="M357,165.6c-2.6,0-5-1.5-6-3.7L338.1,129l5.2-2.4
				l14.7,21.8c0.7,1.3,2.3,2,3.9,1.7l20-5.2l0.3,0.9l-20,5.2c-2,0.4-4-0.5-5-2.1L343,127.9l-3.6,1.6l12.6,32.1
				c0.9,2.2,3.4,3.4,5.9,3l33.4-7.3l0.2,0.9l-33.5,7.3C357.8,165.6,357.4,165.6,357,165.6z"/>
		</defs>
		<clipPath id="SVGID_00000015344482552128187940000002829470546589878957_">
			<use xlink:href="#SVGID_00000044888521003676204010000017707001866051862413_"  style="overflow:visible;"/>
		</clipPath>
		
			<clipPath id="SVGID_00000061446850351814456300000014647891871324192700_" style="clip-path:url(#SVGID_00000015344482552128187940000002829470546589878957_);">
			<use xlink:href="#SVGID_00000174575929330927636580000001523228697120885902_"  style="overflow:visible;"/>
		</clipPath>
		<g style="clip-path:url(#SVGID_00000061446850351814456300000014647891871324192700_);">
			<path class="st0" d="M343.5,142.2c0,0,10.4,17.9,14.4,19.2s12.2-1.4,12.2-1.4s-11.4-0.9-7.5-1.3c3.9-0.3,8.5,0.5,15.9-1.1
				s11.2-4.6,9.3-1.6c-2,3-13,5-16.9,6.3s-12.6,3.2-15.2,2.9c-1.6-0.3-3-1.3-3.7-2.7L343.5,142.2z"/>
		</g>
	</g>
	<polygon class="st3" points="340.4,133.2 345.5,130.9 345.8,131.5 340.7,133.8 	"/>
	<path class="st2" d="M395,121.7c1-0.1,1.9,0.3,2.4,1.1c0.6,1.1,0.5,2.3-0.2,3.3c-1.6,2.5-5.4,3.4-5.4,3.4s-3.6,4.7-7.1,6
		c-3.6,1.3-9.3,1.6-11-5.1c-0.7-2.9,1.4-14.9,1.4-14.9c0.1-1.8,1-3.4,2.5-4.6c2.4-1.6,7.9-2,11-1c3.2,0.9,5.1,3.6,6,5.6
		c0.6,1.5,0.8,3.1,0.7,4.7L395,121.7L395,121.7z"/>
	<path class="st3" d="M380.7,136.8c-1.2,0-2.4-0.2-3.5-0.8c-2-0.9-3.3-2.8-4-5.4c-0.7-3,1.3-14.6,1.4-15.1c0.1-1.9,1.1-3.6,2.7-4.9
		c2.6-1.8,8.3-2,11.5-1.1c3.8,1.1,5.7,4.5,6.3,5.9c0.6,1.6,0.8,3.3,0.7,4.9l-0.2,0.8c1,0.1,1.8,0.6,2.3,1.4c0.6,1.2,0.6,2.6-0.2,3.7
		c-1.5,2.4-4.7,3.4-5.5,3.6c-0.6,0.8-3.9,4.8-7.3,6C383.5,136.5,382.1,136.8,380.7,136.8z M384.4,110c-2.5,0-5.1,0.5-6.5,1.4
		c-1.3,1.1-2.2,2.6-2.3,4.2c0,0.2-2.1,12-1.4,14.8c0.6,2.4,1.7,4,3.5,4.8c2.6,1.2,5.6,0.4,6.8,0c3.4-1.2,6.9-5.8,7-5.8l0.1-0.1
		l0.2,0c0,0,3.6-0.9,5.1-3.2c0.6-0.9,0.6-2,0.1-2.9c-0.3-0.6-1.1-1-1.8-0.9l-0.8,0.1l0.5-2l0,0c0.1-1.5-0.1-3-0.7-4.4
		c-0.6-1.3-2.2-4.4-5.7-5.4C387.2,110.2,385.8,110,384.4,110z"/>
	<path class="st3" d="M383.2,121.7c-0.1,0.5,0,0.9,0.2,0.9s0.6-0.3,0.7-0.8c0.1-0.5,0-0.9-0.2-0.9S383.3,121.3,383.2,121.7z"/>
	<path class="st3" d="M377.6,120.8c-0.1,0.5,0,0.9,0.2,0.9s0.6-0.3,0.7-0.7c0.1-0.5,0-0.9-0.2-0.9
		C378.1,120,377.8,120.3,377.6,120.8z"/>
	<path class="st3" d="M386.6,120c-0.2,0-0.3-0.1-0.4-0.2c-0.6-0.9-1.6-1.4-2.7-1.5c-0.2,0-0.4-0.2-0.4-0.4c0,0,0,0,0,0l0,0
		c0-0.2,0.2-0.4,0.5-0.4c1.4,0.1,2.7,0.8,3.4,1.9c0.1,0.2,0,0.4-0.2,0.5c0,0,0,0,0,0l0,0C386.8,120,386.7,120,386.6,120z"/>
	<path class="st3" d="M376.3,119c-0.1,0-0.2,0-0.3-0.1c-0.2-0.2-0.2-0.4,0-0.6c0,0,0,0,0,0l0,0c0.9-0.9,2.4-1.1,3.6-0.6
		c0.2,0.1,0.3,0.4,0.2,0.5c0,0,0,0,0,0c-0.1,0.2-0.3,0.3-0.6,0.2l0,0c-0.9-0.3-1.9-0.2-2.6,0.5C376.5,118.9,376.4,119,376.3,119z"/>
	<path class="st3" d="M380,125.7L380,125.7c-0.8,0-1.5-0.5-1.7-1.1c-0.2-0.6,0.3-1.1,0.7-1.4c0.3-0.2,0.6-0.6,0.7-0.9
		c0.2-0.9,0.5-2.6,0.5-2.6c0-0.2,0.3-0.4,0.5-0.3c0.2,0,0.4,0.2,0.4,0.5l0,0l0,0c0,0.1-0.3,1.7-0.5,2.7c-0.2,0.5-0.5,1-0.9,1.3
		c-0.4,0.3-0.5,0.5-0.5,0.7c0.1,0.5,0.9,0.5,0.9,0.5c0.2,0,0.4,0.2,0.4,0.4c0,0,0,0,0,0l0,0C380.4,125.6,380.2,125.8,380,125.7
		C380,125.7,380,125.7,380,125.7L380,125.7z"/>
	<path class="st3" d="M382.2,129c-0.4,0-0.8-0.1-1.3-0.2c-0.2-0.1-0.4-0.3-0.3-0.5c0,0,0,0,0,0l0,0c0.1-0.2,0.3-0.3,0.6-0.3
		c0.8,0.2,1.7,0.1,2.4-0.3c0.2-0.1,0.5-0.1,0.6,0.1c0.1,0.2,0.1,0.4-0.1,0.6C383.6,128.8,382.9,129,382.2,129z"/>
	<path class="st3" d="M391.4,107.3c0,0-4.4-3.5-8.6-3.5c-4.2,0-7.6,2.2-10.2,2.4c-2.6,0.2-4.4-2-6,0.9c-1.6,2.9,4.4,7.8,8.4,8.5
		s9.6-0.4,11.2-0.5c1.5-0.1,3.1-0.1,4.6,0c0,0-1.2,3.4,0,4.5c0.9,0.6,1.4,1.5,1.4,2.5c0.1,0.8,0.2,1.6,0.4,2.4l1.2,0.4l0.6-2
		c1.6-1.6,2.7-3.5,3.2-5.6c0.6-3.3-2.4-6.5-2.4-6.5L391.4,107.3z"/>
	<path class="st2" d="M379.3,114.7c-1.6,0-3.1-0.1-4.7-0.3c-0.1,0-0.2-0.1-0.2-0.2l0,0c0-0.1,0.1-0.2,0.2-0.2c0,0,0,0,0,0l0,0
		c0.1,0,6.8,1.1,12-0.8c1.4-0.5,2.2-1.2,2.4-2.1c0.4-1.7-1.7-3.6-1.7-3.6c-0.1-0.1-0.1-0.2,0-0.3c0,0,0,0,0,0c0.1-0.1,0.2-0.1,0.3,0
		c0.1,0.1,2.3,2,1.9,3.9c-0.4,1.2-1.4,2.1-2.7,2.4C384.4,114.3,381.9,114.7,379.3,114.7z"/>
	<path class="st2" d="M390.1,115.2c-0.1,0-0.2-0.1-0.2-0.2c0-0.1,0.1-0.2,0.2-0.2c0.1,0,1.7-0.2,2.6-2.4c0.2-0.8,0-1.6-0.5-2.2
		c-0.9-1.3-2.1-2.3-3.5-3c-0.1,0-0.2-0.1-0.2-0.2l0,0l0,0c0-0.1,0.1-0.2,0.2-0.2l0,0c0.5,0,2.5,1.3,3.6,2.9c0.8,0.8,1.1,1.9,0.8,2.9
		C392.1,115,390.2,115.2,390.1,115.2L390.1,115.2z"/>
</g>
<text transform="matrix(1.2059 0 0 1 192.2054 137.4879)" class="st9 st10 st11">To: Pets to Home</text>
</svg>
